<svg width="24" height="24" viewBox="0 0 24 24" fill="none" xmlns="http://www.w3.org/2000/svg">
<path d="M7.81756 5.75C8.39383 5.75 8.92619 5.79369 9.41465 5.92475C9.9031 6.01212 10.3037 6.19233 10.6605 6.41077C11.0172 6.6292 11.2807 6.94048 11.4618 7.33912C11.6374 7.73777 11.7307 8.22379 11.7307 8.75349C11.7307 9.37058 11.599 9.90028 11.2861 10.2989C11.0172 10.6976 10.5782 11.0525 10.0403 11.3147C10.7977 11.5331 11.374 11.9317 11.7252 12.4614C12.0765 12.9912 12.3015 13.6519 12.3015 14.4055C12.3015 15.0226 12.1698 15.5523 11.9447 15.9946C11.7252 16.437 11.3685 16.8356 10.9678 17.0978C10.5672 17.3653 10.0787 17.5838 9.54637 17.7148C9.014 17.8459 8.48164 17.9333 7.94928 17.9333L2 17.9442V5.75H7.81756ZM7.46082 10.6976C7.94928 10.6976 8.34992 10.5665 8.65727 10.3426C8.96461 10.1187 9.10182 9.72554 9.10182 9.23952C9.10182 8.97193 9.05791 8.70981 8.9701 8.53506C8.88229 8.36031 8.75057 8.22379 8.56945 8.09273C8.39383 8.00535 8.21272 7.91798 7.99319 7.87429C7.77366 7.8306 7.54864 7.8306 7.2852 7.8306H4.7112V10.703C4.7112 10.6976 7.46082 10.6976 7.46082 10.6976ZM7.59254 15.9127C7.86147 15.9127 8.1249 15.869 8.34992 15.8254C8.56945 15.7817 8.79447 15.6943 8.9701 15.5578C9.14572 15.4213 9.28293 15.2902 9.41465 15.0718C9.50246 14.8533 9.59027 14.5857 9.59027 14.2745C9.59027 13.6574 9.41465 13.2151 9.05791 12.9038C8.70117 12.6362 8.21272 12.5051 7.63645 12.5051H4.7112V15.9073H7.59254V15.9127Z" fill="white"/>
<path d="M16.1652 15.869C16.522 16.224 17.0543 16.3988 17.7623 16.3988C18.2508 16.3988 18.6953 16.2677 19.052 16.0438C19.4088 15.7762 19.6283 15.5141 19.7161 15.2465H21.8895C21.5327 16.3059 21.0004 17.0595 20.2924 17.5455C19.5844 17.9879 18.7392 18.25 17.7184 18.25C17.0104 18.25 16.3847 18.1189 15.8085 17.895C15.2322 17.6766 14.7877 17.3653 14.387 16.923C13.9864 16.5244 13.679 16.0383 13.4979 15.4649C13.2784 14.8915 13.1851 14.2745 13.1851 13.5645C13.1851 12.9038 13.2729 12.2812 13.4979 11.7078C13.7229 11.1344 14.0303 10.6484 14.4309 10.2061C14.8316 9.80745 15.32 9.45249 15.8524 9.23405C16.4286 9.01562 17.0049 8.8791 17.7184 8.8791C18.4758 8.8791 19.1399 9.01016 19.7161 9.32143C20.2924 9.6327 20.7369 9.9822 21.0937 10.5119C21.4504 10.9979 21.7139 11.5713 21.895 12.1884C21.9828 12.8055 22.0267 13.428 21.9828 14.1325H15.545C15.545 14.8533 15.8085 15.5141 16.1652 15.869ZM18.9642 11.2273C18.6514 10.916 18.1629 10.7413 17.5867 10.7413C17.186 10.7413 16.8787 10.8286 16.6098 10.9597C16.3408 11.0908 16.1652 11.271 15.9896 11.4457C15.814 11.6205 15.7207 11.8444 15.6768 12.0628C15.6329 12.2812 15.5889 12.4614 15.5889 12.6362H19.5844C19.4966 11.9809 19.2716 11.5386 18.9642 11.2273ZM15.0566 6.59098H20.029V7.78145H15.0566V6.59098Z" fill="white"/>
</svg>
