<svg width="24" height="24" viewBox="0 0 24 24" fill="none" xmlns="http://www.w3.org/2000/svg">
<path d="M12 2C6.48597 2 2 6.48597 2 12C2 17.514 6.48597 22 12 22C17.514 22 22 17.514 22 12C22 6.48597 17.514 2 12 2ZM18.6117 6.61153C19.8013 8.065 20.5217 9.91625 20.5405 11.9323C20.2589 11.8727 17.435 11.3 14.5929 11.6574C14.3609 11.0912 14.142 10.5931 13.8422 9.9794C17.0003 8.69 18.4316 6.85512 18.6117 6.61153ZM17.6621 5.62379C17.5085 5.84262 16.2227 7.57081 13.1855 8.70923C11.7858 6.13762 10.2345 4.02504 9.99839 3.70891C12.7071 3.05597 15.5615 3.76012 17.6621 5.62379ZM8.36859 4.28306C8.59379 4.5919 10.1201 6.7071 11.5354 9.22294C7.53996 10.284 4.02089 10.2687 3.63887 10.2636C4.19274 7.6131 5.97895 5.4102 8.36859 4.28306ZM3.45847 12.013C3.45847 11.9257 3.4602 11.8387 3.46282 11.752C3.83653 11.7597 7.97573 11.813 12.2413 10.5365C12.4858 11.015 12.7194 11.5008 12.9338 11.986C9.84512 12.856 7.03887 15.354 5.65431 17.7242C4.29008 16.2099 3.45847 14.2069 3.45847 12.013ZM6.75714 18.7515C7.64935 16.9275 10.0708 14.5731 13.5144 13.3984C14.7135 16.5146 15.2095 19.1263 15.3365 19.8757C12.59 21.0456 9.2875 20.7246 6.75714 18.7515ZM16.7725 19.0937C16.6849 18.5742 16.2303 16.0737 15.1131 13.0037C17.7897 12.5752 20.1413 13.2766 20.4335 13.3688C20.0528 15.7455 18.6887 17.798 16.7725 19.0937Z" fill="white"/>
</svg>
