<svg width="24" height="24" viewBox="0 0 24 24" fill="none" xmlns="http://www.w3.org/2000/svg">
<path fill-rule="evenodd" clip-rule="evenodd" d="M20 19H16.7125V13.4007C16.7125 11.8655 16.1292 11.0075 14.9141 11.0075C13.5922 11.0075 12.9016 11.9003 12.9016 13.4007V19H9.73333V8.33333H12.9016V9.77013C12.9016 9.77013 13.8542 8.00745 16.1177 8.00745C18.3802 8.00745 20 9.38907 20 12.2465V19ZM5.95365 6.93662C4.87448 6.93662 4 6.05528 4 4.96831C4 3.88134 4.87448 3 5.95365 3C7.03281 3 7.90677 3.88134 7.90677 4.96831C7.90677 6.05528 7.03281 6.93662 5.95365 6.93662ZM4.31771 19H7.62135V8.33333H4.31771V19Z" fill="white"/>
</svg>
