<svg width="24" height="24" viewBox="0 0 24 24" fill="none" xmlns="http://www.w3.org/2000/svg">
<path d="M10.8077 16.5388H7.03845C5.78282 16.5388 4.7125 16.0963 3.8275 15.2114C2.9425 14.3266 2.5 13.2564 2.5 12.0009C2.5 10.7454 2.9425 9.67504 3.8275 8.78979C4.7125 7.90454 5.78282 7.46191 7.03845 7.46191H10.8077V8.96186H7.03845C6.1987 8.96186 5.48235 9.25834 4.8894 9.85129C4.29645 10.4442 3.99998 11.1606 3.99998 12.0003C3.99998 12.8401 4.29645 13.5564 4.8894 14.1494C5.48235 14.7423 6.1987 15.0388 7.03845 15.0388H10.8077V16.5388ZM8.25 12.7503V11.2504H15.75V12.7503H8.25ZM13.1923 16.5388V15.0388H16.9615C17.8013 15.0388 18.5176 14.7423 19.1106 14.1494C19.7035 13.5564 20 12.8401 20 12.0003C20 11.1606 19.7035 10.4442 19.1106 9.85129C18.5176 9.25834 17.8013 8.96186 16.9615 8.96186H13.1923V7.46191H16.9615C18.2171 7.46191 19.2875 7.90436 20.1725 8.78924C21.0575 9.67412 21.5 10.7443 21.5 11.9998C21.5 13.2553 21.0575 14.3256 20.1725 15.2109C19.2875 16.0961 18.2171 16.5388 16.9615 16.5388H13.1923Z" fill="white"/>
</svg>
