<svg width="24" height="24" viewBox="0 0 24 24" fill="none" xmlns="http://www.w3.org/2000/svg">
<path d="M5.68848 19H18.2865L15.5135 16.2269C15.0301 16.6282 14.4926 16.9407 13.901 17.1644C13.3093 17.3881 12.6756 17.5 12 17.5C11.3244 17.5 10.6907 17.3872 10.0991 17.1616C9.50738 16.9359 8.96988 16.6224 8.48655 16.2212L5.68848 19ZM5 18.2865L7.77308 15.5134C7.37179 15.0301 7.05929 14.4926 6.83558 13.901C6.61186 13.3093 6.5 12.6756 6.5 12C6.5 11.3244 6.61282 10.6907 6.83845 10.099C7.0641 9.50738 7.37757 8.96988 7.77885 8.48655L5 5.68848V18.2865ZM8.4923 14.7942L11.2923 12L8.4923 9.20578C8.18077 9.59553 7.9375 10.0244 7.7625 10.4923C7.5875 10.9603 7.5 11.4628 7.5 12C7.5 12.5372 7.5875 13.0398 7.7625 13.5077C7.9375 13.9756 8.18077 14.4045 8.4923 14.7942ZM12 16.5C12.5372 16.5 13.0398 16.4125 13.5077 16.2375C13.9756 16.0625 14.4045 15.8192 14.7942 15.5077L12 12.6885L9.18077 15.5077C9.57052 15.8192 10.0035 16.0625 10.4798 16.2375C10.9561 16.4125 11.4628 16.5 12 16.5ZM12 11.2865L14.7942 8.4923C14.4045 8.18077 13.9756 7.9375 13.5077 7.7625C13.0398 7.5875 12.5372 7.5 12 7.5C11.4628 7.5 10.9602 7.5875 10.4923 7.7625C10.0244 7.9375 9.59552 8.18077 9.20577 8.4923L12 11.2865ZM15.5077 14.7942C15.8192 14.4045 16.0625 13.9756 16.2375 13.5077C16.4125 13.0398 16.5 12.5372 16.5 12C16.5 11.4628 16.4125 10.9561 16.2375 10.4798C16.0625 10.0035 15.8192 9.57053 15.5077 9.18078L12.7135 11.975L15.5077 14.7942ZM19 18.2865V5.68848L16.2212 8.48655C16.6224 8.96988 16.9359 9.50738 17.1615 10.099C17.3872 10.6907 17.5 11.3244 17.5 12C17.5 12.6756 17.3881 13.3093 17.1644 13.901C16.9407 14.4926 16.6282 15.0301 16.2269 15.5134L19 18.2865ZM15.5135 7.77885L18.3115 5H5.71348L8.48655 7.77307C8.96988 7.37179 9.50738 7.05929 10.0991 6.83557C10.6907 6.61186 11.3244 6.5 12 6.5C12.6756 6.5 13.3093 6.61282 13.901 6.83845C14.4926 7.0641 15.0301 7.37757 15.5135 7.77885ZM5.61538 20C5.15513 20 4.77083 19.8458 4.4625 19.5375C4.15417 19.2292 4 18.8449 4 18.3846V5.61537C4 5.15512 4.15417 4.77083 4.4625 4.4625C4.77083 4.15417 5.15513 4 5.61538 4H18.3846C18.8449 4 19.2292 4.15417 19.5375 4.4625C19.8458 4.77083 20 5.15512 20 5.61537V18.3846C20 18.8321 19.8458 19.2132 19.5375 19.5279C19.2292 19.8426 18.8449 20 18.3846 20H5.61538Z" fill="white"/>
</svg>
