<svg width="24" height="24" viewBox="0 0 24 24" fill="none" xmlns="http://www.w3.org/2000/svg">
<path fill-rule="evenodd" clip-rule="evenodd" d="M4.23244 10.9694C9.06328 8.85919 12.2792 7.45703 13.8941 6.77678C18.4903 4.84707 19.4565 4.51388 20.0776 4.5C20.2156 4.5 20.5193 4.52777 20.7263 4.69436C20.892 4.83319 20.9334 5.01366 20.961 5.15249C20.9886 5.29132 21.0162 5.58286 20.9886 5.80498C20.7401 8.44271 19.6635 14.8427 19.1114 17.7858C18.8768 19.0353 18.4213 19.4518 17.9796 19.4934C17.0135 19.5767 16.2819 18.8548 15.3572 18.244C13.8941 17.286 13.0798 16.6891 11.6581 15.7451C10.0156 14.6622 11.0784 14.0652 12.017 13.0934C12.2654 12.8436 16.5028 8.95637 16.5856 8.6093C16.5994 8.56766 16.5994 8.40106 16.5028 8.31776C16.4062 8.23447 16.2681 8.26223 16.1577 8.29C16.0059 8.31777 13.6871 9.87264 9.1737 12.9407C8.51118 13.3989 7.91768 13.621 7.37939 13.6071C6.78588 13.5932 5.65409 13.2739 4.79834 12.9963C3.76315 12.6631 2.93501 12.4826 3.00402 11.8995C3.04543 11.5941 3.4595 11.2887 4.23244 10.9694Z" fill="white"/>
</svg>
