<svg width="42" height="42" viewBox="0 0 42 42" fill="none" xmlns="http://www.w3.org/2000/svg">
<path d="M42 33.81V41.475C42 41.6142 41.9447 41.7478 41.8462 41.8462C41.7478 41.9447 41.6142 42 41.475 42H33.81C33.6959 41.9999 33.5849 41.9626 33.4938 41.8938C33.4028 41.825 33.3366 41.7284 33.3054 41.6186C33.2742 41.5088 33.2796 41.3918 33.3208 41.2854C33.362 41.179 33.4368 41.0889 33.5338 41.0287C36.5648 39.1277 39.1266 36.5658 41.0277 33.5349C41.0876 33.4375 41.1776 33.3622 41.2842 33.3207C41.3907 33.2791 41.5079 33.2735 41.6179 33.3046C41.728 33.3357 41.8248 33.4019 41.8938 33.4932C41.9628 33.5844 42 33.6956 42 33.81V33.81Z" fill="#F0F5FF"/>
<path d="M28.875 21C28.8753 22.7546 28.2897 24.4591 27.2109 25.843C26.1322 27.2269 24.6221 28.2108 22.9205 28.6387C22.7953 28.6684 22.6637 28.6511 22.5504 28.5901C22.4372 28.5292 22.3503 28.4288 22.3062 28.308C20.5646 23.5916 20.5646 18.4083 22.3062 13.692C22.3503 13.5712 22.4372 13.4708 22.5504 13.4098C22.6637 13.3489 22.7953 13.3316 22.9205 13.3612C24.6221 13.7891 26.1322 14.7731 27.2109 16.157C28.2897 17.5408 28.8753 19.2453 28.875 21V21Z" fill="#F0F5FF"/>
<path d="M21 0C9.4017 0 0 9.4017 0 21C0 32.5794 9.4206 42 21 42C32.5983 42 42 32.5983 42 21C42 9.4206 32.5794 0 21 0ZM21.1995 31.5C19.787 31.5271 18.3835 31.2689 17.0731 30.7408C15.7628 30.2127 14.5724 29.4255 13.5734 28.4266C12.5745 27.4276 11.7873 26.2372 11.2592 24.9269C10.7311 23.6165 10.4729 22.213 10.5 20.8005C10.605 15.1872 15.1872 10.605 20.8005 10.5C22.213 10.4729 23.6165 10.7311 24.9269 11.2592C26.2372 11.7873 27.4276 12.5745 28.4266 13.5734C29.4255 14.5724 30.2127 15.7628 30.7408 17.0731C31.2689 18.3835 31.5271 19.787 31.5 21.1995C31.395 26.8128 26.8128 31.395 21.1995 31.5Z" fill="#F0F5FF"/>
</svg>
